<?xml version="1.0" encoding="UTF-8"?>
<svg width="200" height="60" viewBox="0 0 200 60" fill="none" xmlns="http://www.w3.org/2000/svg">
  <g transform="translate(10, 15)">
    <!-- Logo "Газпромбанк Лизинг" -->
    <path d="M0 0H15V5H5V25H0V0Z" fill="#0079C1"/>
    <path d="M20 0H25L35 14V0H40V25H35L25 11V25H20V0Z" fill="#0079C1"/>
    <path d="M45 12.5C45 5.5 50.5 0 57.5 0C64.5 0 70 5.5 70 12.5C70 19.5 64.5 25 57.5 25C50.5 25 45 19.5 45 12.5ZM50 12.5C50 16.5 53.5 20 57.5 20C61.5 20 65 16.5 65 12.5C65 8.5 61.5 5 57.5 5C53.5 5 50 8.5 50 12.5Z" fill="#0079C1"/>
    <path d="M75 0H80V20H90V25H75V0Z" fill="#0079C1"/>
    <path d="M95 0H100V25H95V0Z" fill="#0079C1"/>
    <path d="M105 12.5C105 5.5 110.5 0 117.5 0C124.5 0 130 5.5 130 12.5C130 19.5 124.5 25 117.5 25C110.5 25 105 19.5 105 12.5ZM110 12.5C110 16.5 113.5 20 117.5 20C121.5 20 125 16.5 125 12.5C125 8.5 121.5 5 117.5 5C113.5 5 110 8.5 110 12.5Z" fill="#0079C1"/>
    <path d="M135 0H145V5H140V10H145V15H140V20H145V25H135V0Z" fill="#0079C1"/>
    <path d="M150 0H165V5H155V10H163V15H155V25H150V0Z" fill="#0079C1"/>
    <path d="M170 0H175V25H170V0Z" fill="#0079C1"/>
    <path d="M180 0H190V5H185V25H180V0Z" fill="#0079C1"/>
  </g>
</svg>