<?xml version="1.0" encoding="UTF-8"?>
<svg width="200" height="60" viewBox="0 0 200 60" fill="none" xmlns="http://www.w3.org/2000/svg">
  <g transform="translate(10, 15)">
    <!-- Logo Sberbank and Text "Лизинг" -->
    <path d="M0 15.5C0 8.5 5.5 3 12.5 3C17.5 3 22 6 23.5 10H17.5C16.5 8 14.5 7 12.5 7C8 7 4.5 10.5 4.5 15.5C4.5 20.5 8 24 12.5 24C16 24 19 21.5 20 18H26C24.5 24 19 28 12.5 28C5.5 28 0 22.5 0 15.5Z" fill="#21A038"/>
    <path d="M20 3H26V28H20V3Z" fill="#21A038"/>
    <path d="M40 3H34V28H40V20.5L42.5 18L48 28H55L46 13L54 3H47L40 12V3Z" fill="#21A038"/>
    
    <path d="M60 3H75V8H66V12H73V17H66V23H75V28H60V3Z" fill="#21A038"/>
    <path d="M80 3H95V8H86V12H93V17H86V23H95V28H80V3Z" fill="#21A038"/>
    <path d="M100 3H115V8H106V28H100V3Z" fill="#21A038"/>
    <path d="M117 3H123L133 17V3H138V28H133L123 14V28H117V3Z" fill="#21A038"/>
    <path d="M143 15.5C143 8.5 148.5 3 155.5 3C162.5 3 168 8.5 168 15.5C168 22.5 162.5 28 155.5 28C148.5 28 143 22.5 143 15.5ZM149 15.5C149 19.5 152 23 155.5 23C159 23 162 19.5 162 15.5C162 11.5 159 8 155.5 8C152 8 149 11.5 149 15.5Z" fill="#21A038"/>
  </g>
</svg>